<svg xmlns="http://www.w3.org/2000/svg" viewBox="0 0 32 32">
  <rect width="32" height="32" fill="#ffffff"/>
  <path d="M12.78 7.80L12.78 7.00L19.22 7.00L19.22 7.80Q18.89 8.00 18.47 8.17Q18.05 8.34 17.63 8.40L17.63 8.40L17.63 19.12Q17.63 20.83 17.12 21.93Q16.61 23.03 15.91 23.67Q15.20 24.31 14.47 24.60Q13.74 24.90 13.28 25L13.28 25L12.88 24.46Q13.20 24.20 13.49 23.82Q13.78 23.43 14.00 22.82Q14.22 22.22 14.36 21.35Q14.49 20.48 14.49 19.24L14.49 19.24L14.49 8.40Q14.03 8.30 13.58 8.16Q13.13 8.03 12.78 7.80L12.78 7.80Z" fill="#1A1A2E"/>
</svg>
