<svg xmlns="http://www.w3.org/2000/svg" viewBox="0 0 32 32">
  <rect width="32" height="32" fill="#ffffff"/>
  <path d="M10.43 16L10.43 16Q10.43 14.72 10.82 13.71Q11.21 12.69 11.93 11.98Q12.65 11.27 13.68 10.89Q14.70 10.52 16 10.52L16 10.52Q17.47 10.52 18.52 10.92Q19.58 11.33 20.26 12.05Q20.94 12.78 21.25 13.79Q21.57 14.81 21.57 16L21.57 16Q21.57 17.28 21.19 18.29Q20.81 19.31 20.09 20.02Q19.37 20.73 18.33 21.11Q17.30 21.48 16 21.48L16 21.48Q14.58 21.48 13.53 21.08Q12.48 20.67 11.79 19.95Q11.10 19.22 10.77 18.21Q10.43 17.19 10.43 16ZM13.68 16L13.68 16Q13.68 16.94 13.79 17.73Q13.91 18.51 14.20 19.06Q14.49 19.60 15.00 19.90Q15.50 20.21 16.29 20.21L16.29 20.21Q16.75 20.21 17.13 19.99Q17.51 19.77 17.78 19.28Q18.05 18.78 18.19 17.98Q18.32 17.17 18.32 16L18.32 16Q18.32 15.04 18.21 14.26Q18.09 13.49 17.81 12.94Q17.53 12.40 17.05 12.10Q16.57 11.79 15.83 11.79L15.83 11.79Q15.29 11.79 14.89 12.01Q14.49 12.23 14.22 12.72Q13.95 13.22 13.81 14.02Q13.68 14.83 13.68 16Z" fill="#1A1A2E"/>
</svg>
