<svg xmlns="http://www.w3.org/2000/svg" viewBox="0 0 32 32">
  <rect width="32" height="32" fill="#ffffff"/>
  <path d="M12.02 13.29L12.02 12.47Q12.82 11.97 13.70 11.76L13.70 11.76L13.70 10.07Q13.87 9.94 14.52 9.70Q15.18 9.46 16 9.31L16 9.31L16.71 9.31L16.71 11.97L19.47 11.97L19.47 13.29L16.71 13.29L16.71 18.71Q16.71 20.01 17.04 20.51Q17.36 21.01 18.11 21.01L18.11 21.01Q18.49 21.01 18.96 20.96Q19.43 20.91 19.83 20.76L19.83 20.76L19.98 21.45Q19.79 21.64 19.42 21.85Q19.06 22.06 18.58 22.25Q18.11 22.44 17.56 22.56Q17.00 22.69 16.40 22.69L16.40 22.69Q15.04 22.69 14.37 21.98Q13.70 21.26 13.70 19.67L13.70 19.67L13.70 13.29L12.02 13.29Z" fill="#1A1A2E"/>
</svg>
