<svg xmlns="http://www.w3.org/2000/svg" viewBox="0 0 32 32">
  <rect width="32" height="32" fill="#ffffff"/>
  <path d="M22.37 20.54L22.37 21.36L16.83 21.36L16.83 20.54Q17.10 20.40 17.36 20.28Q17.62 20.17 17.98 20.04L17.98 20.04L17.98 15.12Q17.98 13.80 17.60 13.06Q17.22 12.32 16.26 12.32L16.26 12.32Q15.47 12.32 14.89 12.83Q14.32 13.34 14.02 14.22L14.02 14.22L14.02 20.04Q14.36 20.12 14.62 20.24Q14.88 20.35 15.17 20.54L15.17 20.54L15.17 21.36L9.63 21.36L9.63 20.54Q10.15 20.27 11.01 20.04L11.01 20.04L11.01 12.38L9.63 12.21L9.63 11.40Q9.90 11.27 10.34 11.15Q10.78 11.04 11.29 10.93Q11.80 10.83 12.34 10.76Q12.87 10.68 13.31 10.64L13.31 10.64L14.02 10.64L14.02 12.80L14.04 12.80Q14.48 11.92 15.36 11.28Q16.24 10.64 17.50 10.64L17.50 10.64Q18.31 10.64 18.96 10.84Q19.61 11.04 20.06 11.54Q20.51 12.04 20.75 12.89Q20.99 13.74 20.99 15.04L20.99 15.04L20.99 20.04Q21.83 20.19 22.37 20.54L22.37 20.54Z" fill="#1A1A2E"/>
</svg>
