<svg xmlns="http://www.w3.org/2000/svg" viewBox="0 0 32 32">
  <rect width="32" height="32" fill="#ffffff"/>
  <path d="M15.71 18.98L11.27 9.84Q10.96 9.75 10.69 9.63Q10.43 9.50 10.16 9.33L10.16 9.33L10.16 8.52L15.67 8.52L15.67 9.31Q15.23 9.61 14.47 9.84L14.47 9.84L16.59 15.09L16.94 16.43L16.98 16.43L17.32 15.07L18.95 9.84Q18.32 9.71 17.80 9.33L17.80 9.33L17.80 8.52L21.84 8.52L21.84 9.33Q21.40 9.63 20.65 9.84L20.65 9.84L17.23 18.98Q16.73 20.32 16.23 21.17Q15.73 22.02 15.23 22.52Q14.72 23.02 14.22 23.22Q13.72 23.42 13.22 23.48L13.22 23.48Q13.01 23.29 12.84 23.01Q12.67 22.73 12.55 22.40Q12.42 22.08 12.34 21.75Q12.25 21.41 12.23 21.12L12.23 21.12L12.50 20.62L15.06 20.62Q15.25 20.32 15.38 19.99Q15.52 19.65 15.71 18.98L15.71 18.98Z" fill="#1A1A2E"/>
</svg>
